<?xml version="1.0" encoding="utf-8"?>
<!-- Generator: Adobe Illustrator 19.0.0, SVG Export Plug-In . SVG Version: 6.00 Build 0)  -->
<svg version="1.1" id="Layer_1" xmlns="http://www.w3.org/2000/svg" xmlns:xlink="http://www.w3.org/1999/xlink" x="0px" y="0px"
	 viewBox="0 0 500 500" style="enable-background:new 0 0 500 500;" xml:space="preserve">
<style type="text/css">
	.st0{fill:#494B57;}
	.st1{fill:#FEB415;}
</style>
<g id="XMLID_1_">
	<path id="XMLID_2_" class="st0" d="M293.4,301c-9.8-2.1-17.9-7.7-21.4-14.9c-1.5-3.1-1.8-4.4-1.8-9.4c0-7.2,1.5-10.8,6.2-15.3
		c4.5-4.2,10.3-6.8,24.8-11c17.3-5,20-6.5,20.2-10.5c0.1-2.8-1.7-5.2-5.2-6.7c-4.3-2-14.1-2-17.8,0c-3.6,2-5.5,4.2-6.4,7.7l-0.8,3
		l-8.9-0.1c-4.9-0.1-9.1-0.3-9.4-0.6c-0.8-0.9,0.8-8.8,2.4-12.2c3.2-6.6,7.3-10,15.4-12.8c6.7-2.3,21.2-2.9,28.6-1.3
		c9.9,2.2,17.1,7.3,20.2,14.2c2.3,5.3,3.1,13.6,2.7,30.4c-0.2,10.7-0.6,15.6-1.4,18.4c-4,14.5-16.4,22.3-35.3,22.2
		C301.4,302,295.9,301.5,293.4,301z M310.1,285.7c4-1.2,8.1-4.6,9.9-8.4c1.1-2.3,1.5-4.4,1.7-10.3c0.2-4.1,0.2-7.4,0-7.4
		c-1.7,0-23.3,6.9-25.3,8.1c-3.6,2.1-5.4,5.1-5.4,9.2c0,3,0.2,3.5,2.4,5.7c1.3,1.3,3.4,2.8,4.7,3.1
		C301.4,286.8,306.5,286.8,310.1,285.7z M408.5,301.1c-3.9-1.1-7.5-3.5-9.8-6.4c-3.5-4.6-3.5-4.6-3.5-51.9v-43.7l7,0.2
		c5.9,0.2,7.3,0.4,8.8,1.5c2.7,2,4,5.2,4.6,11.2l0.5,5.5l8.2,0.2l8.2,0.2l0,4c0,7.9-3.7,11.4-12,11.4l-4.7,0v24.6v24.6l1.5,1.7
		c0.8,0.9,2.6,1.9,3.9,2.1c2.4,0.4,8.3,0,10.3-0.8c0.9-0.4,1,0.4,0.9,7.2l-0.2,7.6l-3.9,0.8C423.3,302.2,412.5,302.2,408.5,301.1z
		 M252.3,299.8c-3.2-1.1-5.4-3.2-6.9-6.5c-1.1-2.4-1.2-4.7-1.2-28.6c0-28.6,0-28.8-4.1-31.7c-2.7-2-9.8-2.2-13.5-0.4
		c-5,2.4-4.9,1.5-4.9,36.6v30.9h-10.3h-10.3v-31.2c0-35.1,0.2-33.9-4.7-36.2c-5.6-2.7-13.1-1.4-16.2,2.7c-1.3,1.8-1.3,2.6-1.5,32.5
		c-0.1,16.9-0.2,31-0.2,31.4c0,0.6-2.5,0.8-10.3,0.8h-10.3l0-30c0-30.8,0.4-37.1,2.5-41.2c1.8-3.5,6.3-7.6,10.2-9.5
		c9.7-4.6,28.7-4.6,37.6-0.1l2.4,1.2l4.1-1.7c5.7-2.3,9.6-2.9,17.7-2.9c12.5,0,19.7,2.3,25.7,8.3c6.2,6.2,6,4.8,6.2,43.2l0.2,33.3
		l-5,0C257.1,300.7,253.7,300.3,252.3,299.8z M349.6,267.1c0-19.7,0.3-34.4,0.7-36.5c1.3-6.9,5.8-11.7,12.9-13.7
		c4.2-1.2,14.4-1.3,21.5-0.3l4.8,0.7v7.6v7.6l-2.1-0.5c-1.1-0.3-4.3-0.5-7-0.5c-4,0-5.3,0.3-6.7,1.3c-3.4,2.6-3.4,2.1-3.4,35.8
		l0,31.3h-10.3h-10.3V267.1z"/>
	<path id="XMLID_8_" class="st1" d="M97.4,301.1c-9-1.8-13.7-4.1-19.3-9.6c-4.9-4.8-8.1-11-9.7-18.4c-1.5-7-1-41.6,0.6-47.2
		c2.8-9.7,8.8-17.7,16.5-22.1c6.9-3.9,12.9-5.4,22.5-5.8c9.5-0.3,15.8,0.4,22,2.5c15,5.2,23.7,18.1,21.7,31.9
		c-2,13.4-11,21.2-30.7,26.8c-11.6,3.3-23.2,6.8-24.8,7.7c-4.5,2.3-6.7,5.7-5.9,8.9c1.5,5.8,6.8,8.9,16.1,9.3
		c11.7,0.6,18.1-3.2,20.8-12.4l0.6-1.9l11-0.2l11-0.2l-0.4,1.8c-1.9,9.2-4.8,14.9-9.9,19.6c-7,6.4-15.8,9.4-29.3,9.8
		C104.6,301.9,100.4,301.7,97.4,301.1z M99.4,249c16.4-4.9,18.6-5.6,21.1-6.9c6.8-3.4,9.7-7.8,9.1-13.6c-0.5-5.3-3.3-9.1-8.5-11.7
		c-4.7-2.4-13.9-2.8-19.1-0.8c-6.2,2.4-10.6,8.1-12,15.8c-0.8,4.1-1,18.5-0.3,19.2C90.5,251.6,91.4,251.4,99.4,249z"/>
</g>
</svg>
